<svg width="20" height="20" viewBox="0 0 20 20" fill="none" xmlns="http://www.w3.org/2000/svg">
<g clip-path="url(#clip0_232_470)">
<path d="M8.67773 9.22493C8.42087 9.65681 4.41411 9.72939 2.22823 8.50436C0.0423464 7.27933 1.10434 3.5337 3.32147 2.55015C5.53861 1.56659 8.93459 8.7931 8.67773 9.22493Z" fill="#8362EE"/>
<path d="M8.64738 10.724C8.90423 11.1559 6.96566 14.5604 4.77976 15.7854C2.59387 17.0104 -0.216896 14.2449 0.0141654 11.8893C0.245228 9.53373 8.39052 10.2921 8.64738 10.724Z" fill="#8362EE"/>
<path d="M9.96967 11.499C10.4834 11.499 12.5515 14.831 12.5515 17.281C12.5515 19.731 8.67876 20.7111 6.6927 19.3391C4.70663 17.9671 9.45596 11.499 9.96967 11.499Z" fill="#8362EE"/>
<path d="M11.3223 10.7752C11.5792 10.3432 15.586 10.2707 17.7718 11.4958C19.9577 12.7208 18.8957 16.4664 16.6786 17.4499C14.4614 18.4335 11.0654 11.207 11.3223 10.7752Z" fill="#8362EE"/>
<path d="M11.3526 9.27588C11.0958 8.844 13.0343 5.43952 15.2202 4.21446C17.4062 2.98944 20.2169 5.75502 19.9859 8.11057C19.7548 10.4662 11.6095 9.70777 11.3526 9.27588Z" fill="#8362EE"/>
<path d="M10.0303 8.50086C9.51651 8.50086 7.44846 5.16892 7.44846 2.71887C7.44846 0.268812 11.3212 -0.711251 13.3073 0.660783C15.2934 2.03282 10.544 8.50091 10.0303 8.50086Z" fill="#8362EE"/>
</g>
<defs>
<clipPath id="clip0_232_470">
<rect width="20" height="20" fill="white"/>
</clipPath>
</defs>
</svg>
